HIERARCHY
ROOT Hips
{
	OFFSET 0.000000 0.000000 0.000000
	CHANNELS 6 Xposition Yposition Zposition Zrotation Yrotation Xrotation 
	JOINT LeftUpLeg_virtual
	{
		OFFSET 0.000000 0.000000 0.000000
		CHANNELS 3 Zrotation Yrotation Xrotation
		JOINT LeftUpLeg
		{
			OFFSET 10.205400 -3.823500 0.155100
			CHANNELS 3 Zrotation Yrotation Xrotation
			JOINT LeftLeg
			{
				OFFSET 0.708757 -12.982077 0.567790
				CHANNELS 3 Zrotation Yrotation Xrotation
				JOINT LeftFoot
				{
					OFFSET -0.708756 -10.717838 -2.184338
					CHANNELS 3 Zrotation Yrotation Xrotation
					JOINT LeftToeBase
					{
						OFFSET 0.108149 -7.191104 7.560241
						CHANNELS 3 Zrotation Yrotation Xrotation
						End Site
						{
							OFFSET 0.000000 0.000000 0.000000
						}
					}
				}
			}
		}
	}
	JOINT RightUpLeg_virtual
	{
		OFFSET 0.000000 0.000000 0.000000
		CHANNELS 3 Zrotation Yrotation Xrotation
		JOINT RightUpLeg
		{
			OFFSET -10.205400 -3.823500 0.005500
			CHANNELS 3 Zrotation Yrotation Xrotation
			JOINT RightLeg
			{
				OFFSET -0.708756 -12.982134 0.610632
				CHANNELS 3 Zrotation Yrotation Xrotation
				JOINT RightFoot
				{
					OFFSET 0.708754 -10.717769 -1.945823
					CHANNELS 3 Zrotation Yrotation Xrotation
					JOINT RightToeBase
					{
						OFFSET -0.108140 -7.191069 7.372968
						CHANNELS 3 Zrotation Yrotation Xrotation
						End Site
						{
							OFFSET 0.000000 0.000000 0.000000
						}
					}
				}
			}
		}
	}
	JOINT Spine_virtual
	{
		OFFSET 0.000000 0.000000 0.000000
		CHANNELS 3 Zrotation Yrotation Xrotation
		JOINT Spine
		{
			OFFSET 0.000000 6.876099 0.125700
			CHANNELS 3 Zrotation Yrotation Xrotation
			JOINT Spine1
			{
				OFFSET 0.000000 8.022060 0.146608
				CHANNELS 3 Zrotation Yrotation Xrotation
				JOINT Spine2
				{
					OFFSET 0.000000 9.168068 0.167552
					CHANNELS 3 Zrotation Yrotation Xrotation
					JOINT Neck_virtual
					{
						OFFSET 0.000000 0.000000 0.000000
						CHANNELS 3 Zrotation Yrotation Xrotation
						JOINT Neck
						{
							OFFSET 0.000000 10.314075 0.188496
							CHANNELS 3 Zrotation Yrotation Xrotation
							JOINT Head
							{
								OFFSET 0.000000 7.643700 -2.377400
								CHANNELS 3 Zrotation Yrotation Xrotation
								End Site
								{
									OFFSET 0.000000 0.000000 0.000000
								}
							}
						}
					}
					JOINT LeftShoulder_virtual
					{
						OFFSET 0.000000 0.000000 0.000000
						CHANNELS 3 Zrotation Yrotation Xrotation
						JOINT LeftShoulder
						{
							OFFSET 4.392200 8.824978 0.174984
							CHANNELS 3 Zrotation Yrotation Xrotation
							JOINT LeftArm
							{
								OFFSET 8.771219 -2.981674 -0.026999
								CHANNELS 3 Zrotation Yrotation Xrotation
								JOINT LeftForeArm
								{
									OFFSET 8.512804 0.000000 -0.000000
									CHANNELS 3 Zrotation Yrotation Xrotation
									JOINT LeftHand
									{
										OFFSET 18.484802 0.000000 -0.000000
										CHANNELS 3 Zrotation Yrotation Xrotation
										End Site
										{
											OFFSET 0.000000 0.000000 0.000000
										}
									}
								}
							}
						}
					}
					JOINT RightShoulder_virtual
					{
						OFFSET 0.000000 0.000000 0.000000
						CHANNELS 3 Zrotation Yrotation Xrotation
						JOINT RightShoulder
						{
							OFFSET -4.392200 8.824993 0.141379
							CHANNELS 3 Zrotation Yrotation Xrotation
							JOINT RightArm
							{
								OFFSET -8.771282 -2.981682 -0.094208
								CHANNELS 3 Zrotation Yrotation Xrotation
								JOINT RightForeArm
								{
									OFFSET -8.494598 0.000000 0.000000
									CHANNELS 3 Zrotation Yrotation Xrotation
									JOINT RightHand
									{
										OFFSET -18.483803 0.000000 0.000001
										CHANNELS 3 Zrotation Yrotation Xrotation
										End Site
										{
											OFFSET 0.000000 0.000000 0.000000
										}
									}
								}
							}
						}
					}
				}
			}
		}
	}
}
MOTION
Frames: 7
Frame Time: 0.033333
2.241720 35.311214 -9.477613 -179.755252 -0.679321 179.609031 -0.593001 -3.055591 5.600170 -12.333643 -1.192630 -16.022869 17.583893 5.067256 23.194991 -2.121421 -2.529377 1.480914 0.000000 0.000000 0.000000 4.379732 -2.382392 5.413222 9.695630 -2.894807 -32.086453 -6.257539 0.559148 22.739283 4.631413 4.990556 15.421430 0.000000 0.000000 0.000000 1.703346 -0.311765 -3.464129 0.775042 2.843370 -9.536989 -2.991334 -2.246223 14.998780 0.024287 -0.052128 -0.092102 -3.311259 -0.436959 16.633288 -13.812785 6.092956 26.381845 0.000000 0.000000 0.000000 -1.576712 -0.074202 13.105671 1.930754 -3.638245 2.150549 -41.844338 36.149131 21.530015 -149.805050 -86.999972 160.122461 0.000000 0.000000 0.000000 -5.392859 1.204267 13.129413 24.955985 7.279831 2.023604 37.383107 -31.683082 29.535094 -12.339802 68.985942 -10.516063 0.000000 0.000000 0.000000 
2.321911 35.479847 -9.335670 -179.675817 -1.611259 179.513217 -1.117812 -3.325566 5.847260 -11.125679 -0.411213 -16.684638 16.871274 4.949719 23.335295 -2.729869 -2.932174 1.718190 0.000000 0.000000 0.000000 4.301990 -3.024747 5.482419 7.591319 -2.387962 -32.132768 -6.317914 0.834177 20.336815 5.349011 4.976524 15.856226 0.000000 0.000000 0.000000 1.515731 -0.723451 -2.937874 0.726730 2.979108 -8.933487 -2.968369 -2.034313 14.895188 -0.005964 -0.111411 -0.049159 -3.300442 -0.213821 16.690173 -14.086671 6.091999 26.313884 0.000000 0.000000 0.000000 -1.578030 0.137740 13.194784 1.733466 -4.113399 2.187563 -42.729534 36.243624 22.066422 -78.278974 -88.580040 87.780041 0.000000 0.000000 0.000000 -5.372818 1.464661 13.148918 24.723632 7.454219 2.035919 37.170829 -31.235138 30.249152 -12.748654 68.643989 -10.622443 0.000000 0.000000 0.000000 
2.414737 35.657063 -9.230252 -179.712837 -2.485416 179.477140 -1.700022 -3.531135 6.049826 -9.817836 0.404546 -17.308273 15.977266 4.992636 23.290226 -3.322925 -3.298204 2.062608 0.000000 0.000000 0.000000 4.019203 -3.226706 5.710637 5.520713 -2.147556 -32.121943 -6.331952 0.762237 18.917020 5.886757 5.108129 15.978034 0.000000 0.000000 0.000000 1.209962 -1.016962 -2.416817 0.543787 3.004778 -8.595862 -2.952880 -1.875631 15.154732 -0.005055 -0.129442 -0.140924 -3.267179 0.049517 16.599439 -14.306959 6.099714 26.238401 0.000000 0.000000 0.000000 -1.554781 0.489436 13.131151 1.277837 -4.499779 2.179398 -43.720413 35.842432 22.466224 -21.492112 -86.378308 30.177033 0.000000 0.000000 0.000000 -5.352479 1.792978 13.091030 24.551386 7.774442 2.098369 36.888195 -31.020609 31.060470 -13.156392 68.704422 -10.721437 0.000000 0.000000 0.000000 
2.519448 35.839825 -9.125550 -179.746031 -3.525715 179.426802 -2.296804 -3.726036 6.165630 -8.462066 1.197610 -17.767202 14.852245 5.154500 23.000623 -3.838761 -3.789386 2.535797 0.000000 0.000000 0.000000 3.688690 -3.529884 5.743380 3.528799 -2.179397 -31.621440 -6.196522 1.388443 18.587545 6.399163 5.009747 15.722459 0.000000 0.000000 0.000000 0.889782 -1.251815 -1.829032 0.216079 2.999095 -8.312311 -2.915814 -1.694081 15.190050 -0.010693 -0.142739 -0.139231 -3.170774 0.206890 16.521919 -14.453196 6.010558 26.314421 0.000000 0.000000 0.000000 -1.505329 0.626405 13.085957 0.647007 -4.968821 2.218434 -44.818052 34.915756 22.318480 -11.766811 -83.770740 19.654829 0.000000 0.000000 0.000000 -5.252395 2.110600 12.917143 24.404901 7.760627 2.039304 36.493100 -31.077689 31.757135 -13.593436 69.157209 -10.855940 0.000000 0.000000 0.000000 
2.641024 36.028179 -9.024518 -179.751837 -4.633511 179.289378 -2.857772 -3.934426 6.237937 -7.112687 1.814764 -17.927035 13.692046 5.178404 22.470633 -4.180385 -3.984923 3.115305 0.000000 0.000000 0.000000 3.298178 -3.918042 5.853811 1.599654 -2.220290 -30.789260 -6.033293 1.880876 18.940121 6.952317 5.080373 15.700107 0.000000 0.000000 0.000000 0.590252 -1.447543 -1.102235 -0.213754 2.931554 -8.099310 -2.829371 -1.516664 15.057103 -0.001657 -0.164029 -0.040804 -3.069749 0.399906 16.455205 -14.476243 6.047269 26.488379 0.000000 0.000000 0.000000 -1.412792 0.866330 13.129960 -0.031844 -5.570036 2.232875 -45.901733 33.624106 21.783454 -8.086620 -81.665792 15.248206 0.000000 0.000000 0.000000 -5.168443 2.147344 12.938229 24.393592 7.825430 2.039985 36.214845 -31.211014 32.027221 -14.133954 69.662110 -11.075941 0.000000 0.000000 0.000000 
2.802995 36.207176 -8.944377 -179.763544 -5.625696 179.236308 -3.367840 -4.187773 6.216552 -5.751199 2.096616 -17.878635 12.533484 5.030045 21.727095 -4.297742 -4.085894 3.607103 0.000000 0.000000 0.000000 2.827433 -4.141510 5.950965 -0.162830 -2.352375 -29.552886 -5.838901 2.128965 19.773765 7.534574 5.122967 15.561625 0.000000 0.000000 0.000000 0.275767 -1.554197 -0.733525 -0.749731 2.812367 -7.874847 -2.747054 -1.311765 15.276213 -0.001635 -0.168471 -0.156909 -2.936664 0.501544 16.234960 -14.439664 6.010796 26.770691 0.000000 0.000000 0.000000 -1.316380 0.912949 12.938348 -0.686607 -5.983529 2.250818 -46.712794 32.273375 21.060659 -7.863060 -80.211863 14.364962 0.000000 0.000000 0.000000 -5.065194 2.217723 12.764997 24.461110 7.784229 2.102336 35.966936 -31.501891 32.205127 -14.852996 70.182407 -11.526457 0.000000 0.000000 0.000000 
3.002456 36.376598 -8.912379 -179.779513 -6.683609 179.112804 -3.869210 -4.397610 6.169970 -4.276604 2.043977 -17.605344 11.456231 4.994411 20.967030 -4.383274 -4.353658 3.988271 0.000000 0.000000 0.000000 2.382674 -4.334767 6.084925 -1.702721 -2.452464 -27.938151 -5.642237 2.607200 21.057822 8.118856 5.111525 15.241190 0.000000 0.000000 0.000000 -0.070399 -1.726869 -0.291052 -1.328294 2.656564 -7.738087 -2.660844 -1.189265 15.189777 0.013614 -0.031778 -0.078550 -2.783407 0.638874 16.137736 -14.343635 6.073936 27.172890 0.000000 0.000000 0.000000 -1.216317 0.938944 12.792466 -1.261804 -6.425541 2.365711 -47.383174 31.016739 20.493098 -6.824414 -79.251655 12.754983 0.000000 0.000000 0.000000 -4.950135 2.279278 12.650590 24.575852 7.886753 2.104765 35.652044 -31.737355 32.520843 -15.231711 70.473946 -11.635480 0.000000 0.000000 0.000000 
